<svg id="noun-thumbs-up-1037551" xmlns="http://www.w3.org/2000/svg" width="23.527" height="23.225" viewBox="0 0 23.527 23.225">
  <path id="Path_47565" data-name="Path 47565" d="M260.48,46.247v9.286l1.978.745c.848.311,1.809.65,2.741.9a20.25,20.25,0,0,0,5.51.678,3.669,3.669,0,0,0,1.582-.339,3.053,3.053,0,0,0,.989-.792,2.786,2.786,0,0,0,.508-.932,3.912,3.912,0,0,0,.113-.734,3.363,3.363,0,0,1,.141-.622,3.169,3.169,0,0,1,.2-.452l.282-.593a2.043,2.043,0,0,0,.17-.593,6.6,6.6,0,0,0,.028-.763,3.229,3.229,0,0,1,.056-.734,6.053,6.053,0,0,1,.254-.763l.2-.565a1.2,1.2,0,0,0,0-1.017,1.683,1.683,0,0,1-.113-.48,1.161,1.161,0,0,1,.141-.452,3.723,3.723,0,0,0,.254-.791,2.914,2.914,0,0,0,0-.989,2.548,2.548,0,0,0-1.158-1.78,2.666,2.666,0,0,0-1.328-.367c-.678-.057-1.7-.057-2.345-.085a3.661,3.661,0,0,1-1.074-.141c-.141-.056-.141-.113-.028-.339s.339-.622.508-1.045a5.242,5.242,0,0,0,.339-1.385,7.436,7.436,0,0,0,0-1.583,3.457,3.457,0,0,0-.4-1.356,2.316,2.316,0,0,0-1.045-.961A3.516,3.516,0,0,0,267.4,36.9a1.244,1.244,0,0,0-1.046.537,4.083,4.083,0,0,0-.452,1.5,7.778,7.778,0,0,1-.678,2.345,13.579,13.579,0,0,1-1.924,2.684A11.947,11.947,0,0,1,261.6,45.57a6.816,6.816,0,0,1-1.117.678Zm6.4-5.6a2.98,2.98,0,0,1-.29.755.924.924,0,0,1-.6.505,1.171,1.171,0,0,1-.6-.151l.21-.34.252-.533a5.177,5.177,0,0,0,.214-.627c.058-.214.1-.43.138-.647l.125-.645.139-.6a1.32,1.32,0,0,1,.344.287,1.4,1.4,0,0,1,.274.916,4.485,4.485,0,0,1-.2,1.078Z" transform="translate(-252.027 -36.891)" fill="#fcbf02" fill-rule="evenodd"/>
  <path id="Path_47566" data-name="Path 47566" d="M121.084,246.592V236.25H115.32v10.342Z" transform="translate(-113.309 -227.403)" fill="#fcbf02" fill-rule="evenodd"/>
  <g id="Group_24066" data-name="Group 24066" transform="translate(0 23.219)">
    <path id="Path_47567" data-name="Path 47567" d="M0-.045H0Z" transform="translate(0 0.047)" fill="#fcbf02"/>
  </g>
  <g id="Group_24067" data-name="Group 24067" transform="translate(0.002 23.22)">
    <path id="Path_47568" data-name="Path 47568" d="M0-.031H0Z" transform="translate(0 0.031)" fill="#fcbf02"/>
  </g>
  <g id="Group_24068" data-name="Group 24068" transform="translate(0.003 23.22)">
    <path id="Path_47569" data-name="Path 47569" d="M0-.031H0Zm0,0H0Z" transform="translate(0 0.031)" fill="#fcbf02"/>
  </g>
  <g id="Group_24069" data-name="Group 24069" transform="translate(0.005 23.22)">
    <path id="Path_47570" data-name="Path 47570" d="M0-.031H0Zm0,0H0Z" transform="translate(0 0.031)" fill="#fcbf02"/>
  </g>
  <g id="Group_24070" data-name="Group 24070" transform="translate(0.006 23.22)">
    <path id="Path_47571" data-name="Path 47571" d="M0-.031H0Z" transform="translate(0 0.031)" fill="#fcbf02"/>
  </g>
  <g id="Group_24071" data-name="Group 24071" transform="translate(0.007 23.22)">
    <path id="Path_47572" data-name="Path 47572" d="M0-.031H0Zm0,0H0Z" transform="translate(0 0.031)" fill="#fcbf02"/>
  </g>
  <g id="Group_24072" data-name="Group 24072" transform="translate(0.009 23.219)">
    <path id="Path_47573" data-name="Path 47573" d="M0-.046H0v0H0Zm0,0H0Z" transform="translate(0 0.047)" fill="#fcbf02"/>
  </g>
  <g id="Group_24073" data-name="Group 24073" transform="translate(0.012 23.219)">
    <path id="Path_47574" data-name="Path 47574" d="M0-.045H0Zm0,0H0v0H0Z" transform="translate(0 0.047)" fill="#fcbf02"/>
  </g>
  <g id="Group_24074" data-name="Group 24074" transform="translate(0.014 23.22)">
    <path id="Path_47575" data-name="Path 47575" d="M0-.031H0Z" transform="translate(0 0.031)" fill="#fcbf02"/>
  </g>
  <g id="Group_24075" data-name="Group 24075" transform="translate(0.016 23.219)">
    <path id="Path_47576" data-name="Path 47576" d="M0-.045H0v0H0v0Zm0,0H0Z" transform="translate(0 0.047)" fill="#fcbf02"/>
  </g>
  <g id="Group_24076" data-name="Group 24076" transform="translate(0.018 23.219)">
    <path id="Path_47577" data-name="Path 47577" d="M0-.047H0v0H0Z" transform="translate(0 0.047)" fill="#fcbf02"/>
  </g>
  <g id="Group_24077" data-name="Group 24077" transform="translate(0.019 23.22)">
    <path id="Path_47578" data-name="Path 47578" d="M0-.031H0Zm0,0H0Z" transform="translate(0 0.031)" fill="#fcbf02"/>
  </g>
  <g id="Group_24078" data-name="Group 24078" transform="translate(0.02 23.22)">
    <path id="Path_47579" data-name="Path 47579" d="M0-.031H0Z" transform="translate(0 0.031)" fill="#fcbf02"/>
  </g>
  <g id="Group_24079" data-name="Group 24079" transform="translate(0.023 23.219)">
    <path id="Path_47580" data-name="Path 47580" d="M0-.047H0v0H0Z" transform="translate(0 0.047)" fill="#fcbf02"/>
  </g>
  <g id="Group_24080" data-name="Group 24080" transform="translate(0.025 23.22)">
    <path id="Path_47581" data-name="Path 47581" d="M0-.031H0Z" transform="translate(0 0.031)" fill="#fcbf02"/>
  </g>
  <g id="Group_24081" data-name="Group 24081" transform="translate(0.027 23.22)">
    <path id="Path_47582" data-name="Path 47582" d="M0-.031H0Z" transform="translate(0 0.031)" fill="#fcbf02"/>
  </g>
  <g id="Group_24082" data-name="Group 24082" transform="translate(0.028 23.22)">
    <path id="Path_47583" data-name="Path 47583" d="M0-.031H0Zm0,0H0Z" transform="translate(0 0.031)" fill="#fcbf02"/>
  </g>
  <g id="Group_24083" data-name="Group 24083" transform="translate(0.03 23.22)">
    <path id="Path_47584" data-name="Path 47584" d="M0-.031H0Z" transform="translate(0 0.031)" fill="#fcbf02"/>
  </g>
  <g id="Group_24084" data-name="Group 24084" transform="translate(0.031 23.22)">
    <path id="Path_47585" data-name="Path 47585" d="M0-.031H0Zm0,0H0Z" transform="translate(0 0.031)" fill="#fcbf02"/>
  </g>
  <g id="Group_24085" data-name="Group 24085" transform="translate(0.033 23.22)">
    <path id="Path_47586" data-name="Path 47586" d="M0-.031H0Z" transform="translate(0 0.031)" fill="#fcbf02"/>
  </g>
  <g id="Group_24086" data-name="Group 24086" transform="translate(0 23.222)">
    <path id="Path_47587" data-name="Path 47587" d="M0-.047H0Z" transform="translate(0 0.047)" fill="#fcbf02"/>
  </g>
  <g id="Group_24087" data-name="Group 24087" transform="translate(0.001 23.223)">
    <path id="Path_47588" data-name="Path 47588" d="M0-.031H0Z" transform="translate(0 0.031)" fill="#fcbf02"/>
  </g>
  <g id="Group_24088" data-name="Group 24088" transform="translate(0.002 23.223)">
    <path id="Path_47589" data-name="Path 47589" d="M0-.031H0Zm0,0H0Z" transform="translate(0 0.031)" fill="#fcbf02"/>
  </g>
  <g id="Group_24089" data-name="Group 24089" transform="translate(0.004 23.223)">
    <path id="Path_47590" data-name="Path 47590" d="M0-.031H0Z" transform="translate(0 0.031)" fill="#fcbf02"/>
  </g>
  <g id="Group_24090" data-name="Group 24090" transform="translate(0.007 23.223)">
    <path id="Path_47591" data-name="Path 47591" d="M0-.031H0Z" transform="translate(0 0.031)" fill="#fcbf02"/>
  </g>
  <g id="Group_24091" data-name="Group 24091" transform="translate(0.008 23.222)">
    <path id="Path_47592" data-name="Path 47592" d="M0-.045H0v0H0Z" transform="translate(0 0.047)" fill="#fcbf02"/>
  </g>
  <g id="Group_24092" data-name="Group 24092" transform="translate(0.01 23.223)">
    <path id="Path_47593" data-name="Path 47593" d="M0-.031H0Zm0,0H0Z" transform="translate(0 0.031)" fill="#fcbf02"/>
  </g>
  <g id="Group_24093" data-name="Group 24093" transform="translate(0.013 23.222)">
    <path id="Path_47594" data-name="Path 47594" d="M0-.047H0v0H0Z" transform="translate(0 0.047)" fill="#fcbf02"/>
  </g>
  <g id="Group_24094" data-name="Group 24094" transform="translate(0.015 23.223)">
    <path id="Path_47595" data-name="Path 47595" d="M0-.031H0Zm0,0H0Z" transform="translate(0 0.031)" fill="#fcbf02"/>
  </g>
  <g id="Group_24095" data-name="Group 24095" transform="translate(0.016 23.223)">
    <path id="Path_47596" data-name="Path 47596" d="M0-.031H0Z" transform="translate(0 0.031)" fill="#fcbf02"/>
  </g>
  <g id="Group_24096" data-name="Group 24096" transform="translate(0.018 23.223)">
    <path id="Path_47597" data-name="Path 47597" d="M0-.031H0Z" transform="translate(0 0.031)" fill="#fcbf02"/>
  </g>
  <g id="Group_24097" data-name="Group 24097" transform="translate(0.021 23.222)">
    <path id="Path_47598" data-name="Path 47598" d="M0-.047H0Zm0,0H0Z" transform="translate(0 0.047)" fill="#fcbf02"/>
  </g>
  <g id="Group_24098" data-name="Group 24098" transform="translate(0.023 23.223)">
    <path id="Path_47599" data-name="Path 47599" d="M0-.031H0Z" transform="translate(0 0.031)" fill="#fcbf02"/>
  </g>
  <g id="Group_24099" data-name="Group 24099" transform="translate(0.024 23.223)">
    <path id="Path_47600" data-name="Path 47600" d="M0-.031H0Zm0,0H0Z" transform="translate(0 0.031)" fill="#fcbf02"/>
  </g>
  <g id="Group_24100" data-name="Group 24100" transform="translate(0.025 23.222)">
    <path id="Path_47601" data-name="Path 47601" d="M0-.046H0Zm0,0H0Z" transform="translate(0 0.047)" fill="#fcbf02"/>
  </g>
  <g id="Group_24101" data-name="Group 24101" transform="translate(0.026 23.223)">
    <path id="Path_47602" data-name="Path 47602" d="M0-.031H0Zm0,0H0Z" transform="translate(0 0.031)" fill="#fcbf02"/>
  </g>
  <g id="Group_24102" data-name="Group 24102" transform="translate(0.028 23.223)">
    <path id="Path_47603" data-name="Path 47603" d="M0-.031H0Z" transform="translate(0 0.031)" fill="#fcbf02"/>
  </g>
  <g id="Group_24103" data-name="Group 24103" transform="translate(0.029 23.223)">
    <path id="Path_47604" data-name="Path 47604" d="M0-.031H0Z" transform="translate(0 0.031)" fill="#fcbf02"/>
  </g>
</svg>
